<svg width="31" height="29" viewBox="0 0 31 29" fill="none" xmlns="http://www.w3.org/2000/svg">
<path d="M0 0.0716034H6.97794V27.9273H0V0.0716034Z" fill="#1D9BF0"/>
<path d="M20.6087 8.08704L15.9177 12.6729L7.55533 4.6014L12.2463 0.0155454L20.6087 8.08704Z" fill="#1D9BF0"/>
<path d="M20.5442 7.95594V17.11L15.5995 12.4436L20.5442 7.95594Z" fill="#1D9BF0"/>
<path d="M6.83456 0L12.2831 7.9293e-08L7.69486 4.57494L6.83456 3.87855V0Z" fill="#1D9BF0"/>
<path d="M23.6103 0.0716034H30.5882V28.2059H23.6103V0.0716034Z" fill="#1D9BF0"/>
<path d="M23.6103 28.113L18.4963 28.113L23.1087 23.6118L23.9578 24.321L23.6103 28.113Z" fill="#1D9BF0"/>
<path d="M10.0846 20.2206L9.90582 10.9268L14.8324 15.6112L10.0846 20.2206Z" fill="#1D9BF0"/>
<path d="M23.0902 23.6494L18.3992 28.2353L10.0368 20.1638L14.7278 15.5779L23.0902 23.6494Z" fill="#1D9BF0"/>
</svg>
